<svg width="29" height="37" viewBox="0 0 29 37" fill="none" xmlns="http://www.w3.org/2000/svg">
<mask id="path-1-inside-1_5_366" fill="white">
<path fill-rule="evenodd" clip-rule="evenodd" d="M13.5641 0.511262C11.7862 1.10776 11.0459 3.24329 12.0781 4.79751C12.3866 5.26193 12.9381 5.72107 13.3623 5.86669L13.652 5.96616L13.6937 7.16019L13.0935 7.2097C11.3749 7.35153 9.39424 8.10072 7.78562 9.21732C6.90009 9.83198 5.45291 11.3284 4.86113 12.2413C3.52663 14.2997 2.89451 16.3951 2.89212 18.7679L2.89118 19.7647H1.63643C0.476697 19.7647 0.367192 19.7764 0.190838 19.919L0 20.0733V23.6253L0.190838 23.7796C0.330038 23.8921 0.486765 23.9339 0.770234 23.9339H1.15879V29.782C1.15879 35.9817 1.15807 35.9674 1.48796 36.0975C1.64121 36.158 26.894 36.158 27.0473 36.0975C27.3771 35.9674 27.3764 35.9817 27.3764 29.782V23.9339H27.7707C28.0831 23.9339 28.2072 23.8966 28.3682 23.7543L28.5714 23.5745V20.1241L28.3682 19.9443C28.1701 19.7692 28.1333 19.7647 26.8913 19.7647H25.6176L25.6616 19.3327C25.7161 18.7962 25.6047 17.3191 25.4499 16.5261C25.1735 15.1106 24.5005 13.4882 23.6583 12.208C23.0791 11.3274 21.6062 9.81337 20.7496 9.21792C19.125 8.08866 17.1471 7.34289 15.4121 7.20531L14.847 7.16056V6.5736C14.847 6.07999 14.8671 5.98015 14.9737 5.94553C16.3898 5.48521 17.1846 4.19394 16.2715 3.8371C16.0023 3.7319 15.798 3.82966 15.3719 4.26772C14.7416 4.91559 13.9554 4.97247 13.3005 4.41752C12.4583 3.70391 12.6124 2.30343 13.5865 1.81876C13.8622 1.68155 14.0334 1.65325 14.5295 1.66278C15.252 1.67663 15.4264 1.5654 15.4264 1.09063C15.4264 0.619215 15.1949 0.460487 14.4663 0.432121C14.0957 0.417678 13.7535 0.447756 13.5641 0.511262ZM13.0365 8.52687C8.7459 9.07944 5.17827 12.452 4.30469 16.7811C4.1539 17.5287 4.04867 18.8864 4.10386 19.3738L4.14811 19.7647H24.3966L24.4465 19.3541C24.5091 18.8394 24.4345 17.8562 24.263 16.9327C23.494 12.792 20.3284 9.51646 16.2748 8.66728C15.4244 8.48913 13.8572 8.42115 13.0365 8.52687ZM1.15879 22.6682H27.3764V21.0303H1.15879V22.6682ZM2.39001 31.6767H11.0085L11.0136 30.5041C11.0164 29.8592 11.0408 29.2769 11.0679 29.2101C11.1744 28.9472 13.9253 25.8806 14.0935 25.8372C14.1892 25.8125 14.346 25.8125 14.4417 25.8372C14.6099 25.8806 17.3608 28.9472 17.4673 29.2101C17.4944 29.2769 17.5188 29.8592 17.5216 30.5041L17.5267 31.6767H26.1452V23.9339H2.39001V31.6767ZM13.2245 28.558L12.2397 29.6829V34.9525H16.2955V29.6829L15.3107 28.558C14.7691 27.9393 14.2997 27.4331 14.2676 27.4331C14.2355 27.4331 13.7661 27.9393 13.2245 28.558ZM2.39001 34.9525H11.0085V32.9424H2.39001V34.9525ZM17.5267 34.9525H26.1452V32.9424H17.5267V34.9525Z"/>
</mask>
<path d="M13.5641 0.511262L9.0239 -13.0338L9.02001 -13.0325L13.5641 0.511262ZM12.0781 4.79751L0.178006 12.7012L0.178033 12.7012L12.0781 4.79751ZM13.3623 5.86669L18.0014 -7.6448L18.0009 -7.64498L13.3623 5.86669ZM13.652 5.96616L27.929 5.46735L27.5859 -4.35403L18.2911 -7.54534L13.652 5.96616ZM13.6937 7.16019L14.868 21.3976L28.4464 20.2776L27.9707 6.66138L13.6937 7.16019ZM13.0935 7.2097L11.9192 -7.02767L11.9185 -7.02762L13.0935 7.2097ZM7.78562 9.21732L15.9315 20.953L15.9317 20.9529L7.78562 9.21732ZM4.86113 12.2413L16.8482 20.0124L16.8485 20.0119L4.86113 12.2413ZM2.89212 18.7679L-11.3936 18.7536L-11.3936 18.7545L2.89212 18.7679ZM2.89118 19.7647V34.0504H17.1634L17.1769 19.7782L2.89118 19.7647ZM0.190838 19.919L9.17137 31.029L9.17498 31.0261L0.190838 19.919ZM0 20.0733L-8.98053 8.9633L-14.2857 13.2516V20.0733H0ZM0 23.6253H-14.2857V30.447L-8.98053 34.7353L0 23.6253ZM0.190838 23.7796L9.17376 12.6715L9.17137 12.6696L0.190838 23.7796ZM1.15879 23.9339H15.4445V9.64819H1.15879V23.9339ZM1.48796 36.0975L-3.75442 49.3866L-3.75429 49.3866L1.48796 36.0975ZM27.0473 36.0975L32.2895 49.3866L32.2896 49.3866L27.0473 36.0975ZM27.3764 23.9339V9.64819H13.0907V23.9339H27.3764ZM28.3682 23.7543L37.8308 34.4566L37.832 34.4555L28.3682 23.7543ZM28.5714 23.5745L38.0353 34.2758L42.8571 30.0115V23.5745H28.5714ZM28.5714 20.1241H42.8571V13.6871L38.0353 9.42277L28.5714 20.1241ZM28.3682 19.9443L37.832 9.24305L37.8303 9.24149L28.3682 19.9443ZM25.6176 19.7647L11.4053 18.3183L9.80422 34.0504H25.6176V19.7647ZM25.6616 19.3327L39.8739 20.7791L39.8741 20.7773L25.6616 19.3327ZM25.4499 16.5261L11.4289 19.2636L11.4289 19.2637L25.4499 16.5261ZM23.6583 12.208L11.7232 20.0588L11.7233 20.0589L23.6583 12.208ZM20.7496 9.21792L28.9033 -2.5123L28.9032 -2.51239L20.7496 9.21792ZM15.4121 7.20531L16.5415 -7.0357L16.5397 -7.03584L15.4121 7.20531ZM14.847 7.16056H0.561288V20.3599L13.7194 21.4017L14.847 7.16056ZM14.9737 5.94553L19.386 19.5328L19.3902 19.5314L14.9737 5.94553ZM16.2715 3.8371L21.4716 -9.46855L21.4712 -9.46874L16.2715 3.8371ZM13.3005 4.41752L4.06504 15.3165L4.06517 15.3167L13.3005 4.41752ZM13.5865 1.81876L19.9503 14.6088L19.9526 14.6076L13.5865 1.81876ZM14.5295 1.66278L14.2551 15.9459L14.2557 15.9459L14.5295 1.66278ZM14.4663 0.432121L13.9101 14.707L13.9106 14.707L14.4663 0.432121ZM13.0365 8.52687L14.8612 22.6956L14.8616 22.6955L13.0365 8.52687ZM4.30469 16.7811L-9.69876 13.9553L-9.69899 13.9564L4.30469 16.7811ZM4.10386 19.3738L18.2989 17.7668L18.2989 17.7666L4.10386 19.3738ZM4.14811 19.7647L-10.0469 21.3718L-8.61153 34.0504H4.14811V19.7647ZM24.3966 19.7647V34.0504H37.0512L38.578 21.4882L24.3966 19.7647ZM24.4465 19.3541L10.2652 17.6299L10.2651 17.6305L24.4465 19.3541ZM24.263 16.9327L38.3086 14.3245L38.3086 14.3242L24.263 16.9327ZM16.2748 8.66728L19.204 -5.31491L19.2039 -5.31494L16.2748 8.66728ZM1.15879 22.6682H-13.1269V36.954H1.15879V22.6682ZM27.3764 22.6682V36.954H41.6621V22.6682H27.3764ZM27.3764 21.0303H41.6621V6.74463H27.3764V21.0303ZM1.15879 21.0303V6.74463H-13.1269V21.0303H1.15879ZM2.39001 31.6767H-11.8957V45.9624H2.39001V31.6767ZM11.0085 31.6767V45.9624H25.2326L25.2941 31.7385L11.0085 31.6767ZM11.0136 30.5041L-3.272 30.4416L-3.272 30.4424L11.0136 30.5041ZM11.0679 29.2101L24.3061 34.5795L24.3077 34.5757L11.0679 29.2101ZM14.0935 25.8372L17.6636 39.6696L17.6644 39.6694L14.0935 25.8372ZM14.4417 25.8372L10.8708 39.6694L10.8716 39.6696L14.4417 25.8372ZM17.4673 29.2101L4.22751 34.5757L4.22908 34.5795L17.4673 29.2101ZM17.5216 30.5041L31.8072 30.4424L31.8072 30.4416L17.5216 30.5041ZM17.5267 31.6767L3.24112 31.7385L3.30263 45.9624H17.5267V31.6767ZM26.1452 31.6767V45.9624H40.4309V31.6767H26.1452ZM26.1452 23.9339H40.4309V9.64819H26.1452V23.9339ZM2.39001 23.9339V9.64819H-11.8957V23.9339H2.39001ZM13.2245 28.558L2.4761 19.1477L2.47541 19.1485L13.2245 28.558ZM12.2397 29.6829L1.49066 20.2734L-2.04599 24.3135V29.6829H12.2397ZM12.2397 34.9525H-2.04599V49.2383H12.2397V34.9525ZM16.2955 34.9525V49.2383H30.5812V34.9525H16.2955ZM16.2955 29.6829H30.5812V24.3136L27.0446 20.2734L16.2955 29.6829ZM15.3107 28.558L26.0598 19.1485L26.0591 19.1477L15.3107 28.558ZM2.39001 34.9525H-11.8957V49.2383H2.39001V34.9525ZM11.0085 34.9525V49.2383H25.2942V34.9525H11.0085ZM11.0085 32.9424H25.2942V18.6567H11.0085V32.9424ZM2.39001 32.9424V18.6567H-11.8957V32.9424H2.39001ZM17.5267 34.9525H3.24099V49.2383H17.5267V34.9525ZM26.1452 34.9525V49.2383H40.4309V34.9525H26.1452ZM26.1452 32.9424H40.4309V18.6567H26.1452V32.9424ZM17.5267 32.9424V18.6567H3.24099V32.9424H17.5267ZM9.02001 -13.0325C-1.5695 -9.4796 -6.11071 3.23264 0.178006 12.7012L23.9783 -3.10618C28.2025 3.25394 25.1419 11.6951 18.1081 14.055L9.02001 -13.0325ZM0.178033 12.7012C1.22104 14.2716 2.42802 15.5077 3.53631 16.4304C4.53499 17.2619 6.29408 18.5443 8.72373 19.3784L18.0009 -7.64498C19.11 -7.26422 19.9396 -6.81266 20.4587 -6.49638C21.0096 -6.16075 21.459 -5.82544 21.8173 -5.52709C22.4667 -4.98644 23.2437 -4.21218 23.9783 -3.10622L0.178033 12.7012ZM8.72321 19.3782L9.01291 19.4776L18.2911 -7.54534L18.0014 -7.6448L8.72321 19.3782ZM12.5194 -7.07718L11.9192 -7.02767L14.2678 21.4471L14.868 21.3976L12.5194 -7.07718ZM11.9185 -7.02762C7.37226 -6.65243 3.02654 -4.86927 -0.360469 -2.51821L15.9317 20.9529C15.7398 21.0861 15.5929 21.1566 15.4523 21.2098C15.3337 21.2547 14.9488 21.3909 14.2684 21.447L11.9185 -7.02762ZM-0.360273 -2.51835C-1.91371 -1.44009 -3.24139 -0.155862 -4.05573 0.686172C-4.87458 1.53287 -6.10501 2.89511 -7.1263 4.4706L16.8485 20.0119C16.6937 20.2508 16.5729 20.4144 16.5141 20.4921C16.4504 20.5764 16.4106 20.6243 16.4015 20.6351C16.3881 20.6511 16.4184 20.6147 16.4822 20.5487C16.5461 20.4826 16.5801 20.4526 16.5618 20.469C16.5499 20.4796 16.501 20.523 16.4158 20.592C16.3373 20.6555 16.1724 20.7858 15.9315 20.953L-0.360273 -2.51835ZM-7.12599 4.47012C-9.90462 8.7562 -11.3883 13.531 -11.3936 18.7536L17.1778 18.7823C17.1777 18.8931 17.1579 19.1683 17.054 19.5128C16.952 19.8508 16.8372 20.0295 16.8482 20.0124L-7.12599 4.47012ZM-11.3936 18.7545L-11.3945 19.7512L17.1769 19.7782L17.1778 18.7814L-11.3936 18.7545ZM2.89118 5.47897H1.63643V34.0504H2.89118V5.47897ZM1.63643 5.47897C1.41497 5.47897 0.167308 5.46177 -0.971672 5.58337C-1.73025 5.66436 -3.21924 5.87136 -4.9519 6.56054C-6.87745 7.32645 -8.19037 8.32427 -8.79331 8.81196L9.17498 31.0261C8.66022 31.4425 7.42713 32.3853 5.60795 33.1089C3.98166 33.7558 2.6256 33.9331 2.06141 33.9934C1.7528 34.0263 1.51815 34.0395 1.40456 34.045C1.34162 34.0481 1.29362 34.0497 1.26466 34.0506C1.23542 34.0515 1.21804 34.0519 1.21574 34.0519C1.21486 34.0519 1.24449 34.0514 1.32333 34.051C1.40049 34.0506 1.50003 34.0504 1.63643 34.0504V5.47897ZM-8.78969 8.80904L-8.98053 8.9633L8.98053 31.1833L9.17137 31.029L-8.78969 8.80904ZM-8.98053 34.7353L-8.78969 34.8895L9.17137 12.6696L8.98053 12.5153L-8.98053 34.7353ZM-8.79208 34.8876C-5.00121 37.9532 -0.994178 38.2196 0.770234 38.2196V9.64819C1.21636 9.64819 2.49631 9.66642 4.10387 10.0947C5.9807 10.5947 7.70863 11.4867 9.17376 12.6715L-8.79208 34.8876ZM0.770234 38.2196H1.15879V9.64819H0.770234V38.2196ZM-13.1269 23.9339V29.782H15.4445V23.9339H-13.1269ZM-13.1269 29.782C-13.1269 32.5954 -13.1329 34.6888 -13.0667 35.9595C-13.0467 36.3422 -13.0071 36.9576 -12.9083 37.6619C-12.8237 38.2645 -12.6017 39.6734 -11.9346 41.3126C-11.1362 43.2743 -9.71067 45.5434 -7.30845 47.3836C-6.25375 48.1916 -5.29143 48.6976 -4.67149 48.9905C-4.3676 49.134 -4.1181 49.239 -3.97596 49.2974C-3.90254 49.3276 -3.84279 49.3515 -3.80844 49.3652C-3.79073 49.3722 -3.77617 49.378 -3.76776 49.3813C-3.76345 49.383 -3.7598 49.3844 -3.75774 49.3853C-3.75379 49.3868 -3.75617 49.3859 -3.75442 49.3866L6.73034 22.8084C6.26472 22.6248 8.21971 23.2876 10.0667 24.7025C12.4058 26.4944 13.7772 28.6948 14.5293 30.5427C15.1501 32.0681 15.3335 33.318 15.386 33.6916C15.4225 33.9523 15.4417 34.1526 15.4512 34.2643C15.4611 34.38 15.4651 34.4546 15.466 34.4722C15.4673 34.4969 15.4634 34.4269 15.4591 34.2001C15.455 33.9838 15.4517 33.6888 15.4493 33.2827C15.4445 32.4621 15.4445 31.3509 15.4445 29.782H-13.1269ZM-3.75429 49.3866C-2.29476 49.9624 -1.05597 50.1556 -0.931723 50.177C-0.533205 50.2456 -0.215364 50.2826 -0.0619694 50.2994C0.259984 50.3347 0.515014 50.3514 0.611018 50.3575C0.834894 50.3717 1.01912 50.3781 1.09064 50.3805C1.26479 50.3864 1.43546 50.3897 1.55442 50.3918C1.8141 50.3962 2.14522 50.3997 2.50916 50.4026C3.24997 50.4085 4.27722 50.4134 5.47956 50.4172C7.89136 50.4248 11.0833 50.4286 14.2676 50.4286C17.4519 50.4286 20.6439 50.4248 23.0557 50.4172C24.258 50.4134 25.2852 50.4085 26.0261 50.4026C26.39 50.3997 26.7211 50.3962 26.9808 50.3918C27.0998 50.3897 27.2704 50.3864 27.4446 50.3805C27.5161 50.3781 27.7003 50.3717 27.9242 50.3575C28.0202 50.3514 28.2752 50.3347 28.5972 50.2994C28.7506 50.2826 29.0684 50.2456 29.4669 50.177C29.5912 50.1556 30.83 49.9624 32.2895 49.3866L21.805 22.8084C23.2633 22.2331 24.5002 22.0403 24.6217 22.0194C25.0175 21.9513 25.3318 21.9148 25.481 21.8984C25.7945 21.864 26.038 21.8483 26.1196 21.8431C26.3145 21.8308 26.458 21.8261 26.4772 21.8255C26.5468 21.8231 26.5669 21.8232 26.4925 21.8245C26.3653 21.8267 26.1381 21.8293 25.7965 21.8321C25.1264 21.8375 24.1544 21.8421 22.9654 21.8459C20.5944 21.8534 17.4348 21.8571 14.2676 21.8571C11.1004 21.8571 7.94084 21.8534 5.56984 21.8459C4.38079 21.8421 3.40882 21.8375 2.73869 21.8321C2.39715 21.8293 2.16987 21.8267 2.04273 21.8245C1.96827 21.8232 1.98842 21.8231 2.05801 21.8255C2.07726 21.8261 2.22069 21.8308 2.41565 21.8431C2.4972 21.8483 2.74074 21.864 3.05422 21.8984C3.20337 21.9148 3.51773 21.9513 3.91353 22.0194C4.03505 22.0403 5.27188 22.2331 6.73021 22.8084L-3.75429 49.3866ZM32.2896 49.3866C32.2914 49.3859 32.289 49.3868 32.293 49.3853C32.295 49.3844 32.2987 49.383 32.303 49.3813C32.3114 49.378 32.3259 49.3722 32.3437 49.3652C32.378 49.3515 32.4378 49.3276 32.5112 49.2974C32.6533 49.239 32.9028 49.134 33.2067 48.9905C33.8266 48.6976 34.789 48.1916 35.8437 47.3836C38.2459 45.5434 39.6714 43.2743 40.4698 41.3126C41.1369 39.6734 41.3589 38.2645 41.4435 37.6619C41.5423 36.9577 41.5819 36.3422 41.6019 35.9595C41.6681 34.6888 41.6621 32.5954 41.6621 29.782H13.0907C13.0907 31.3509 13.0907 32.4621 13.0859 33.2827C13.0835 33.6888 13.0802 33.9838 13.0761 34.2001C13.0718 34.4269 13.0679 34.4969 13.0692 34.4722C13.0701 34.4546 13.0742 34.38 13.084 34.2643C13.0935 34.1526 13.1127 33.9523 13.1493 33.6916C13.2017 33.318 13.3851 32.0681 14.0059 30.5427C14.758 28.6948 16.1295 26.4944 18.4686 24.7025C20.3155 23.2876 22.2705 22.6248 21.8049 22.8084L32.2896 49.3866ZM41.6621 29.782V23.9339H13.0907V29.782H41.6621ZM27.3764 38.2196H27.7707V9.64819H27.3764V38.2196ZM27.7707 38.2196C28.2494 38.2196 30.0766 38.2285 32.2395 37.5782C34.874 36.7861 36.7186 35.44 37.8308 34.4566L18.9056 13.0519C19.8568 12.2108 21.5589 10.9546 24.013 10.2167C25.9955 9.62066 27.6044 9.64819 27.7707 9.64819V38.2196ZM37.832 34.4555L38.0353 34.2758L19.1076 12.8732L18.9044 13.053L37.832 34.4555ZM38.0353 9.42277L37.832 9.24305L18.9044 30.6456L19.1076 30.8253L38.0353 9.42277ZM37.8303 9.24149C37.7829 9.19963 36.4891 7.98935 34.5559 7.03433C32.5322 6.03458 30.7291 5.72719 29.7462 5.60763C28.4587 5.45102 26.974 5.47897 26.8913 5.47897V34.0504C27.0474 34.0504 27.1586 34.0505 27.2481 34.0508C27.3394 34.0512 27.3712 34.0517 27.3694 34.0517C27.366 34.0516 27.3439 34.0512 27.3076 34.0501C27.2718 34.049 27.2116 34.0469 27.133 34.0429C26.9935 34.0359 26.6915 34.0181 26.2962 33.97C25.5025 33.8735 23.8234 33.6 21.9011 32.6504C20.9663 32.1886 20.2292 31.6934 19.6973 31.2923C19.4468 31.1034 19.2503 30.9416 19.1264 30.8371C19.0076 30.737 18.9195 30.659 18.9061 30.6472L37.8303 9.24149ZM26.8913 5.47897H25.6176V34.0504H26.8913V5.47897ZM39.8299 21.2111L39.8739 20.7791L11.4493 17.8863L11.4053 18.3183L39.8299 21.2111ZM39.8741 20.7773C40.0418 19.1271 39.921 17.5011 39.8795 16.9512C39.8181 16.1379 39.6985 14.9547 39.4708 13.7885L11.4289 19.2637C11.38 19.0131 11.3677 18.891 11.3743 18.9453C11.3776 18.9721 11.3838 19.0314 11.389 19.1C11.3947 19.1758 11.393 19.1809 11.3913 19.1071C11.3904 19.0684 11.3885 18.9624 11.3916 18.8041C11.3942 18.6738 11.4031 18.34 11.4491 17.8882L39.8741 20.7773ZM39.4708 13.7886C38.8166 10.4377 37.3924 7.09207 35.5933 4.35708L11.7233 20.0589C11.6561 19.9568 11.6196 19.89 11.6041 19.8604C11.5878 19.8294 11.5784 19.8084 11.5711 19.7908C11.564 19.7737 11.5486 19.7349 11.5273 19.6663C11.507 19.6008 11.4687 19.4673 11.4289 19.2636L39.4708 13.7886ZM35.5934 4.35718C34.5717 2.80393 33.334 1.45289 32.5478 0.644778C31.767 -0.157866 30.4422 -1.44263 28.9033 -2.5123L12.5958 20.9481C12.3434 20.7726 12.1724 20.6368 12.0962 20.575C12.0119 20.5066 11.9656 20.4652 11.9582 20.4586C11.9486 20.45 11.993 20.4901 12.0681 20.5673C12.143 20.6443 12.1833 20.6913 12.1775 20.6845C12.1724 20.6784 12.1344 20.6335 12.0709 20.5508C12.0135 20.476 11.8868 20.3075 11.7232 20.0588L35.5934 4.35718ZM28.9032 -2.51239C25.4901 -4.8848 21.1283 -6.67196 16.5415 -7.0357L14.2828 21.4463C13.6089 21.3929 13.2175 21.2579 13.082 21.2068C12.9263 21.1481 12.777 21.0741 12.596 20.9482L28.9032 -2.51239ZM16.5397 -7.03584L15.9746 -7.08059L13.7194 21.4017L14.2846 21.4465L16.5397 -7.03584ZM29.1327 7.16056V6.5736H0.561288V7.16056H29.1327ZM29.1327 6.5736C29.1327 6.50359 29.1344 6.66249 29.1232 6.91146C29.1157 7.07865 29.0824 7.87984 28.8739 8.91309C28.6762 9.89281 28.1 12.2712 26.2317 14.6996C24.0672 17.5132 21.3588 18.8922 19.386 19.5328L10.5615 -7.64174C8.53539 -6.98379 5.78452 -5.57935 3.58625 -2.72193C1.68421 -0.249554 1.08297 2.19109 0.866918 3.2618C0.640067 4.38604 0.595011 5.3069 0.580414 5.63272C0.562154 6.04032 0.561288 6.39679 0.561288 6.5736H29.1327ZM19.3902 19.5314C22.6991 18.4558 26.3066 16.1672 28.6619 12.3408C29.7903 10.5074 31.596 6.68291 30.7177 1.74877C29.6587 -4.2007 25.4446 -7.91585 21.4716 -9.46855L11.0714 17.1428C7.55499 15.7685 3.58396 12.3485 2.58844 6.75594C1.77366 2.17866 3.46331 -1.22734 4.3302 -2.63573C6.16231 -5.6123 8.66446 -7.02504 10.5573 -7.64035L19.3902 19.5314ZM21.4712 -9.46874C18.0049 -10.8233 13.7459 -10.9673 9.71319 -9.03717C7.07562 -7.77479 5.39164 -5.96045 5.13198 -5.69353L25.6117 14.229C25.5425 14.3002 25.2412 14.6092 24.7778 14.9937C24.3327 15.3631 23.4029 16.086 22.0479 16.7345C20.5712 17.4413 18.6336 18.0379 16.35 18.0815C14.1098 18.1243 12.292 17.6197 11.0719 17.1429L21.4712 -9.46874ZM5.13198 -5.69353C6.74066 -7.3472 9.50586 -9.17934 13.3149 -9.45482C17.2196 -9.73722 20.4472 -8.25132 22.5357 -6.48162L4.06517 15.3167C6.80863 17.6413 10.7568 19.3762 15.3759 19.0422C19.8994 18.715 23.3728 16.5305 25.6117 14.229L5.13198 -5.69353ZM22.5359 -6.48151C29.2323 -0.807232 28.5053 10.3522 19.9503 14.6088L7.22281 -10.9713C-3.28044 -5.74534 -4.31568 8.21505 4.06504 15.3165L22.5359 -6.48151ZM19.9526 14.6076C19.6761 14.7452 19.1614 14.9883 18.4806 15.2255C17.7613 15.4761 17.0308 15.6602 16.3063 15.78C15.6253 15.8926 15.0784 15.9268 14.7591 15.9391C14.597 15.9453 14.4703 15.9466 14.393 15.9468C14.3155 15.947 14.2652 15.9461 14.2551 15.9459L14.8039 -12.6203C14.4543 -12.627 13.1674 -12.6604 11.6444 -12.4085C9.70914 -12.0885 8.21632 -11.4658 7.22048 -10.9701L19.9526 14.6076ZM14.2557 15.9459C14.6938 15.9543 15.6895 15.9645 16.8827 15.8037C18.0126 15.6514 20.4049 15.2157 22.9317 13.6039C29.6283 9.33213 29.7121 2.32955 29.7121 1.09063H1.14068C1.14068 0.558029 1.15578 -1.25409 1.94259 -3.4454C2.89645 -6.10194 4.75605 -8.69148 7.56611 -10.484C9.95899 -12.0104 12.1722 -12.3912 13.0661 -12.5117C14.0234 -12.6407 14.7265 -12.6218 14.8032 -12.6203L14.2557 15.9459ZM29.7121 1.09063C29.7121 -1.50943 28.9324 -7.32251 23.2999 -11.1857C19.4576 -13.8211 15.441 -13.8265 15.0221 -13.8428L13.9106 14.707C13.6923 14.6985 12.9525 14.6653 11.9703 14.4578C11.0092 14.2547 9.14049 13.7487 7.13932 12.3762C4.8942 10.8363 3.15597 8.6671 2.13951 6.15956C1.23597 3.93059 1.14068 2.02068 1.14068 1.09063H29.7121ZM15.0226 -13.8428C14.1387 -13.8772 11.7078 -13.9334 9.0239 -13.0338L18.1043 14.0563C17.3024 14.3251 16.6425 14.4622 16.2452 14.5331C15.8168 14.6097 15.4591 14.6504 15.1963 14.6735C14.6803 14.7188 14.2508 14.7203 13.9101 14.707L15.0226 -13.8428ZM11.2117 -5.64182C0.679563 -4.28542 -7.64907 3.79787 -9.69876 13.9553L18.3081 19.6069C18.1403 20.4384 17.7288 21.122 17.2029 21.6192C16.6767 22.1166 15.8875 22.5634 14.8612 22.6956L11.2117 -5.64182ZM-9.69899 13.9564C-9.9328 15.1156 -10.0541 16.2731 -10.116 17.0715C-10.1544 17.5669 -10.2877 19.2454 -10.0912 20.981L18.2989 17.7666C18.3557 18.2684 18.368 18.6447 18.3718 18.7997C18.3764 18.9855 18.3744 19.1165 18.3732 19.1752C18.3707 19.2892 18.3667 19.3224 18.3701 19.2785C18.3728 19.2429 18.376 19.2153 18.3758 19.2168C18.3754 19.2203 18.3718 19.249 18.3635 19.3016C18.356 19.3499 18.3387 19.4554 18.3084 19.6057L-9.69899 13.9564ZM-10.0912 20.9809L-10.0469 21.3718L18.3431 18.1576L18.2989 17.7668L-10.0912 20.9809ZM38.578 21.4882L38.6279 21.0776L10.2651 17.6305L10.2152 18.0411L38.578 21.4882ZM38.6278 21.0783C38.9539 18.3958 38.5671 15.7162 38.3086 14.3245L10.2174 19.5409C10.2113 19.5079 10.2051 19.4742 10.1977 19.3761C10.1935 19.3214 10.1839 19.1783 10.1828 18.9577C10.1819 18.7817 10.184 18.2976 10.2652 17.6299L38.6278 21.0783ZM38.3086 14.3242C36.5057 4.6165 29.0513 -3.25198 19.204 -5.31491L13.3457 22.6495C11.6055 22.2849 10.4824 20.9675 10.2175 19.5412L38.3086 14.3242ZM19.2039 -5.31494C16.8695 -5.80394 13.6945 -5.96164 11.2113 -5.64178L14.8616 22.6955C14.5971 22.7296 14.4 22.7446 14.2929 22.7515C14.1787 22.7589 14.1012 22.7611 14.065 22.7618C13.999 22.7632 13.9911 22.7614 14.0256 22.7629C14.0592 22.7644 14.0601 22.7658 14.0114 22.7606C13.9974 22.7591 13.7508 22.7343 13.3458 22.6495L19.2039 -5.31494ZM25.2941 31.7385L25.2992 30.5659L-3.272 30.4424L-3.27707 31.615L25.2941 31.7385ZM25.2992 30.5667C25.2995 30.4843 25.3006 30.4073 25.3019 30.3427C25.3026 30.3109 25.3033 30.2851 25.3039 30.2659C25.3045 30.2463 25.3049 30.2375 25.3048 30.2392C25.3048 30.2396 25.3039 30.2607 25.3017 30.2993C25.2997 30.333 25.2948 30.415 25.2852 30.5304C25.2781 30.6167 25.256 30.8754 25.2085 31.2185C25.1852 31.3868 25.1377 31.7085 25.0545 32.1121C25.0119 32.3187 24.9452 32.6196 24.847 32.9795C24.7568 33.3096 24.5875 33.8859 24.3061 34.5795L-2.17034 23.8407C-2.6677 25.0669 -2.87582 26.0879 -2.92882 26.3451C-3.01532 26.7648 -3.06613 27.1065 -3.0927 27.2983C-3.14676 27.6886 -3.17517 28.0088 -3.18847 28.1692C-3.21742 28.5184 -3.23281 28.8339 -3.24152 29.0414C-3.26031 29.4893 -3.26997 29.9786 -3.272 30.4416L25.2992 30.5667ZM24.3077 34.5757C23.8586 35.6839 23.368 36.4765 23.2445 36.6767C23.0457 36.9991 22.8771 37.2422 22.7906 37.3648C22.615 37.6137 22.4814 37.7836 22.4534 37.8192C22.3816 37.9105 22.3699 37.9212 22.4611 37.8136C22.6225 37.6231 22.8871 37.3201 23.1917 36.9806C23.4981 36.6391 23.7608 36.3542 23.9152 36.192C24.0086 36.0937 23.9716 36.136 23.8513 36.2524C23.8111 36.2912 23.5891 36.5068 23.2654 36.7809C23.1176 36.9061 22.753 37.2107 22.2511 37.5613C21.9989 37.7375 21.5582 38.0337 20.979 38.3529C20.5199 38.6059 19.3261 39.2406 17.6636 39.6696L10.5234 12.0048C7.7818 12.7124 5.91664 14.1197 5.88953 14.1386C5.36733 14.5034 4.97775 14.8277 4.80051 14.9778C4.41802 15.3018 4.11953 15.588 3.98789 15.7153C3.68454 16.0087 3.40417 16.2997 3.21442 16.4992C2.80232 16.9324 2.33918 17.4387 1.92347 17.9021C1.50599 18.3675 1.0524 18.8832 0.662824 19.343C0.478497 19.5605 0.233046 19.8543 -0.0102352 20.1638C-0.12394 20.3085 -0.327783 20.5713 -0.555454 20.894C-0.667963 21.0535 -0.858066 21.3287 -1.07359 21.6782C-1.21373 21.9054 -1.71612 22.7199 -2.17191 23.8446L24.3077 34.5757ZM17.6644 39.6694C16.1646 40.0566 14.9389 40.1044 14.2676 40.1044C13.5964 40.1044 12.3706 40.0566 10.8708 39.6694L18.0126 12.005C16.4171 11.5931 15.0651 11.533 14.2676 11.533C13.4701 11.533 12.1181 11.5931 10.5226 12.005L17.6644 39.6694ZM10.8716 39.6696C9.2091 39.2406 8.01532 38.6059 7.55625 38.3529C6.97701 38.0337 6.53628 37.7375 6.28409 37.5613C5.78217 37.2107 5.4176 36.9061 5.26977 36.7809C4.9461 36.5068 4.72407 36.2912 4.68394 36.2524C4.56364 36.136 4.5266 36.0937 4.62007 36.192C4.77439 36.3542 5.03716 36.6391 5.34351 36.9806C5.64809 37.3201 5.91272 37.6231 6.07415 37.8136C6.16533 37.9212 6.15359 37.9105 6.08179 37.8192C6.05383 37.7836 5.92018 37.6137 5.74459 37.3648C5.65812 37.2422 5.48953 36.9991 5.29068 36.6767C5.16721 36.4765 4.67664 35.6839 4.22751 34.5757L30.7071 23.8446C30.2513 22.7199 29.7489 21.9054 29.6088 21.6782C29.3933 21.3287 29.2032 21.0535 29.0907 20.894C28.863 20.5713 28.6592 20.3085 28.5454 20.1638C28.3022 19.8543 28.0567 19.5605 27.8724 19.343C27.4828 18.8832 27.0292 18.3675 26.6117 17.9021C26.196 17.4387 25.7329 16.9324 25.3208 16.4992C25.131 16.2997 24.8507 16.0087 24.5473 15.7153C24.4157 15.588 24.1172 15.3018 23.7347 14.9778C23.5575 14.8277 23.1679 14.5034 22.6457 14.1386C22.6186 14.1197 20.7534 12.7124 18.0119 12.0048L10.8716 39.6696ZM4.22908 34.5795C3.94772 33.8859 3.77838 33.3096 3.68826 32.9795C3.59005 32.6196 3.52327 32.3187 3.48068 32.1121C3.39752 31.7085 3.35002 31.3868 3.3267 31.2185C3.27918 30.8754 3.25714 30.6167 3.24999 30.5304C3.24041 30.415 3.23547 30.333 3.23353 30.2993C3.23131 30.2607 3.23043 30.2396 3.23042 30.2392C3.23035 30.2375 3.23072 30.2463 3.23132 30.2659C3.23191 30.2851 3.2326 30.3109 3.23327 30.3427C3.23465 30.4073 3.2357 30.4843 3.23606 30.5667L31.8072 30.4416C31.8052 29.9786 31.7955 29.4893 31.7767 29.0414C31.768 28.8339 31.7526 28.5184 31.7237 28.1692C31.7104 28.0088 31.682 27.6886 31.6279 27.2983C31.6013 27.1065 31.5505 26.7648 31.464 26.3451C31.411 26.0879 31.2029 25.0669 30.7056 23.8407L4.22908 34.5795ZM3.23605 30.5659L3.24112 31.7385L31.8123 31.615L31.8072 30.4424L3.23605 30.5659ZM2.47541 19.1485L1.49066 20.2734L22.9888 39.0925L23.9735 37.9675L2.47541 19.1485ZM27.0446 20.2734L26.0598 19.1485L4.56167 37.9675L5.54642 39.0925L27.0446 20.2734ZM26.0591 19.1477C25.7253 18.7664 25.3788 18.3796 25.0735 18.0503C24.9362 17.9022 24.7211 17.6725 24.4827 17.4335C24.3887 17.3393 24.1245 17.0753 23.7808 16.7703C23.6405 16.6458 23.2246 16.2788 22.6538 15.8657C22.3883 15.6736 21.7837 15.247 20.9544 14.8081C20.6949 14.6708 18.0205 13.1473 14.2676 13.1473V41.7188C12.092 41.7188 10.4252 41.2187 9.61784 40.9406C8.70871 40.6275 8.00907 40.283 7.5894 40.0609C6.76378 39.624 6.16364 39.2003 5.90349 39.0121C5.34337 38.6067 4.94139 38.2512 4.818 38.1417C4.50823 37.8669 4.29027 37.6473 4.25327 37.6102C4.1288 37.4854 4.07089 37.4209 4.12264 37.4768C4.19547 37.5553 4.35456 37.731 4.56236 37.9683L26.0591 19.1477ZM14.2676 13.1473C10.5147 13.1473 7.84036 14.6708 7.58084 14.8081C6.75152 15.247 6.14686 15.6736 5.88137 15.8657C5.31059 16.2788 4.89471 16.6458 4.75436 16.7703C4.41066 17.0753 4.14653 17.3393 4.05255 17.4335C3.81412 17.6726 3.599 17.9022 3.46169 18.0503C3.1564 18.3796 2.80996 18.7664 2.4761 19.1477L23.9729 37.9683C24.1807 37.731 24.3397 37.5553 24.4126 37.4767C24.4643 37.4209 24.4064 37.4854 24.282 37.6102C24.245 37.6473 24.027 37.8669 23.7172 38.1417C23.5938 38.2512 23.1919 38.6067 22.6317 39.0121C22.3716 39.2003 21.7714 39.624 20.9458 40.0609C20.5261 40.283 19.8265 40.6275 18.9174 40.9406C18.11 41.2187 16.4432 41.7188 14.2676 41.7188V13.1473ZM-0.625004 6.46496L-0.583287 7.65899L27.9707 6.66138L27.929 5.46735L-0.625004 6.46496ZM-14.2857 20.0733V23.6253H14.2857V20.0733H-14.2857ZM42.8571 23.5745V20.1241H14.2857V23.5745H42.8571ZM4.14811 34.0504H24.3966V5.47897H4.14811V34.0504ZM-13.1269 21.0303V22.6682H15.4445V21.0303H-13.1269ZM1.15879 36.954H27.3764V8.38253H1.15879V36.954ZM41.6621 22.6682V21.0303H13.0907V22.6682H41.6621ZM27.3764 6.74463H1.15879V35.3161H27.3764V6.74463ZM-11.8957 23.9339V31.6767H16.6757V23.9339H-11.8957ZM2.39001 45.9624H11.0085V17.391H2.39001V45.9624ZM17.5267 45.9624H26.1452V17.391H17.5267V45.9624ZM40.4309 31.6767V23.9339H11.8595V31.6767H40.4309ZM26.1452 9.64819H2.39001V38.2196H26.1452V9.64819ZM-2.04599 29.6829V34.9525H26.5254V29.6829H-2.04599ZM12.2397 49.2383H16.2955V20.6668H12.2397V49.2383ZM30.5812 34.9525V29.6829H2.00978V34.9525H30.5812ZM-11.8957 32.9424V34.9525H16.6757V32.9424H-11.8957ZM2.39001 49.2383H11.0085V20.6668H2.39001V49.2383ZM25.2942 34.9525V32.9424H-3.27721V34.9525H25.2942ZM11.0085 18.6567H2.39001V47.2281H11.0085V18.6567ZM3.24099 32.9424V34.9525H31.8124V32.9424H3.24099ZM17.5267 49.2383H26.1452V20.6668H17.5267V49.2383ZM40.4309 34.9525V32.9424H11.8595V34.9525H40.4309ZM26.1452 18.6567H17.5267V47.2281H26.1452V18.6567Z" fill="#F5F6F8" mask="url(#path-1-inside-1_5_366)"/>
</svg>
